<mxfile host="app.diagrams.net" modified="2023-04-13T03:42:10.261Z" agent="5.0 (Windows NT 10.0; Win64; x64) AppleWebKit/537.36 (KHTML, like Gecko) Chrome/111.0.0.0 Safari/537.36" etag="Sve8eeufwe1ir_sU_zOE" version="20.8.22" type="github">
  <diagram id="q-7PsiMm7Glh7ckRHqH4" name="Page-1">
    <mxGraphModel dx="1292" dy="457" grid="0" gridSize="10" guides="1" tooltips="1" connect="1" arrows="1" fold="1" page="0" pageScale="1" pageWidth="850" pageHeight="1100" background="none" math="0" shadow="0">
      <root>
        <mxCell id="0" />
        <mxCell id="1" parent="0" />
        <mxCell id="etjuAYB1iHOg5vf0_o8F-4" value="" style="edgeStyle=orthogonalEdgeStyle;rounded=0;orthogonalLoop=1;jettySize=auto;html=1;" parent="1" source="etjuAYB1iHOg5vf0_o8F-1" target="etjuAYB1iHOg5vf0_o8F-2" edge="1">
          <mxGeometry relative="1" as="geometry" />
        </mxCell>
        <mxCell id="etjuAYB1iHOg5vf0_o8F-1" value="&lt;font style=&quot;font-size: 18px;&quot;&gt;MapTask&lt;/font&gt;" style="ellipse;whiteSpace=wrap;html=1;fillColor=#ffe6cc;strokeColor=#d79b00;" parent="1" vertex="1">
          <mxGeometry x="90" y="220" width="120" height="80" as="geometry" />
        </mxCell>
        <mxCell id="etjuAYB1iHOg5vf0_o8F-7" value="" style="edgeStyle=orthogonalEdgeStyle;rounded=0;orthogonalLoop=1;jettySize=auto;html=1;" parent="1" source="etjuAYB1iHOg5vf0_o8F-2" target="etjuAYB1iHOg5vf0_o8F-6" edge="1">
          <mxGeometry relative="1" as="geometry" />
        </mxCell>
        <mxCell id="etjuAYB1iHOg5vf0_o8F-2" value="&lt;font style=&quot;font-size: 18px;&quot;&gt;ReduceTask&lt;/font&gt;" style="ellipse;whiteSpace=wrap;html=1;fillColor=#ffe6cc;strokeColor=#d79b00;" parent="1" vertex="1">
          <mxGeometry x="340" y="220" width="120" height="80" as="geometry" />
        </mxCell>
        <mxCell id="etjuAYB1iHOg5vf0_o8F-6" value="&lt;font style=&quot;font-size: 18px;&quot;&gt;AllTaskFinished&lt;/font&gt;" style="ellipse;whiteSpace=wrap;html=1;fillColor=#ffe6cc;strokeColor=#d79b00;" parent="1" vertex="1">
          <mxGeometry x="600" y="220" width="140" height="80" as="geometry" />
        </mxCell>
        <mxCell id="etjuAYB1iHOg5vf0_o8F-9" value="Map任务全部完成" style="text;html=1;strokeColor=none;fillColor=none;align=center;verticalAlign=middle;whiteSpace=wrap;rounded=0;fontSize=14;" parent="1" vertex="1">
          <mxGeometry x="210" y="230" width="130" height="30" as="geometry" />
        </mxCell>
        <mxCell id="etjuAYB1iHOg5vf0_o8F-10" value="&lt;div style=&quot;text-align: center;&quot;&gt;&lt;span style=&quot;background-color: initial; font-size: 14px;&quot;&gt;Reduce任务全部完成&lt;/span&gt;&lt;/div&gt;" style="text;whiteSpace=wrap;html=1;fontSize=18;" parent="1" vertex="1">
          <mxGeometry x="460" y="230" width="140" height="50" as="geometry" />
        </mxCell>
        <mxCell id="rNgutta_hT1cDGAifY1m-18" style="edgeStyle=orthogonalEdgeStyle;curved=1;rounded=0;orthogonalLoop=1;jettySize=auto;html=1;exitX=0.5;exitY=0;exitDx=0;exitDy=0;entryX=0.5;entryY=0;entryDx=0;entryDy=0;fontSize=18;" edge="1" parent="1" source="rNgutta_hT1cDGAifY1m-3" target="rNgutta_hT1cDGAifY1m-5">
          <mxGeometry relative="1" as="geometry" />
        </mxCell>
        <mxCell id="rNgutta_hT1cDGAifY1m-3" value="&lt;span style=&quot;font-size: 18px;&quot;&gt;Ready&lt;/span&gt;" style="ellipse;whiteSpace=wrap;html=1;fillColor=#ffe6cc;strokeColor=#d79b00;" vertex="1" parent="1">
          <mxGeometry x="92" y="412" width="120" height="80" as="geometry" />
        </mxCell>
        <mxCell id="rNgutta_hT1cDGAifY1m-4" value="" style="edgeStyle=orthogonalEdgeStyle;rounded=0;orthogonalLoop=1;jettySize=auto;html=1;" edge="1" parent="1" source="rNgutta_hT1cDGAifY1m-5" target="rNgutta_hT1cDGAifY1m-6">
          <mxGeometry relative="1" as="geometry" />
        </mxCell>
        <mxCell id="rNgutta_hT1cDGAifY1m-13" style="edgeStyle=orthogonalEdgeStyle;curved=1;rounded=0;orthogonalLoop=1;jettySize=auto;html=1;exitX=0.5;exitY=1;exitDx=0;exitDy=0;entryX=0.5;entryY=1;entryDx=0;entryDy=0;fontSize=18;" edge="1" parent="1" source="rNgutta_hT1cDGAifY1m-5" target="rNgutta_hT1cDGAifY1m-3">
          <mxGeometry relative="1" as="geometry" />
        </mxCell>
        <mxCell id="rNgutta_hT1cDGAifY1m-5" value="&lt;font style=&quot;font-size: 18px;&quot;&gt;Processing&lt;/font&gt;" style="ellipse;whiteSpace=wrap;html=1;fillColor=#ffe6cc;strokeColor=#d79b00;" vertex="1" parent="1">
          <mxGeometry x="342" y="412" width="120" height="80" as="geometry" />
        </mxCell>
        <mxCell id="rNgutta_hT1cDGAifY1m-6" value="&lt;span style=&quot;font-size: 18px;&quot;&gt;Finished&lt;/span&gt;" style="ellipse;whiteSpace=wrap;html=1;fillColor=#ffe6cc;strokeColor=#d79b00;" vertex="1" parent="1">
          <mxGeometry x="585" y="412" width="140" height="80" as="geometry" />
        </mxCell>
        <mxCell id="rNgutta_hT1cDGAifY1m-7" value="MapTask被分配" style="text;html=1;strokeColor=none;fillColor=none;align=center;verticalAlign=middle;whiteSpace=wrap;rounded=0;fontSize=14;" vertex="1" parent="1">
          <mxGeometry x="212" y="397" width="130" height="30" as="geometry" />
        </mxCell>
        <mxCell id="rNgutta_hT1cDGAifY1m-8" value="&lt;div style=&quot;text-align: center;&quot;&gt;&lt;span style=&quot;background-color: initial; font-size: 14px;&quot;&gt;MapTask完成&lt;/span&gt;&lt;/div&gt;" style="text;whiteSpace=wrap;html=1;fontSize=18;" vertex="1" parent="1">
          <mxGeometry x="479" y="421" width="140" height="50" as="geometry" />
        </mxCell>
        <mxCell id="rNgutta_hT1cDGAifY1m-9" value="&lt;b&gt;&lt;font style=&quot;font-size: 18px;&quot;&gt;Coordinator状态图&lt;/font&gt;&lt;/b&gt;" style="text;html=1;strokeColor=none;fillColor=none;align=center;verticalAlign=middle;whiteSpace=wrap;rounded=0;" vertex="1" parent="1">
          <mxGeometry x="310.75" y="320" width="178.25" height="39" as="geometry" />
        </mxCell>
        <mxCell id="rNgutta_hT1cDGAifY1m-10" value="&lt;b&gt;&lt;font style=&quot;font-size: 18px;&quot;&gt;MapTask状态图&lt;/font&gt;&lt;/b&gt;" style="text;html=1;strokeColor=none;fillColor=none;align=center;verticalAlign=middle;whiteSpace=wrap;rounded=0;" vertex="1" parent="1">
          <mxGeometry x="359" y="579" width="178.25" height="39" as="geometry" />
        </mxCell>
        <mxCell id="rNgutta_hT1cDGAifY1m-19" value="MapTask任务超时" style="text;html=1;strokeColor=none;fillColor=none;align=center;verticalAlign=middle;whiteSpace=wrap;rounded=0;fontSize=14;" vertex="1" parent="1">
          <mxGeometry x="212" y="523" width="130" height="30" as="geometry" />
        </mxCell>
      </root>
    </mxGraphModel>
  </diagram>
</mxfile>
